<svg width="500" height="260" xmlns="http://www.w3.org/2000/svg">
  <!-- 边框 -->
  <rect x="120" y="30" width="260" height="200" fill="none" stroke="#388e3c" stroke-width="2"/>
  <text x="180" y="55" font-size="16" fill="#388e3c">Markdown编辑器子系统</text>

  <!-- 用例椭圆 -->
  <ellipse cx="250" cy="100" rx="60" ry="22" fill="#c8e6c9" stroke="#388e3c" stroke-width="2"/>
  <text x="225" y="105" font-size="14" fill="#388e3c">内容编辑</text>
  <ellipse cx="250" cy="150" rx="60" ry="22" fill="#c8e6c9" stroke="#388e3c" stroke-width="2"/>
  <text x="225" y="155" font-size="14" fill="#388e3c">实时预览</text>
  <ellipse cx="250" cy="200" rx="60" ry="22" fill="#c8e6c9" stroke="#388e3c" stroke-width="2"/>
  <text x="225" y="205" font-size="14" fill="#388e3c">内容保存</text>
  <ellipse cx="370" cy="150" rx="60" ry="22" fill="#c8e6c9" stroke="#388e3c" stroke-width="2"/>
  <text x="345" y="155" font-size="14" fill="#388e3c">内容导出</text>

  <!-- 用户 -->
  <rect x="30" y="110" width="30" height="60" rx="15" fill="#c00"/>
  <circle cx="45" cy="100" r="15" fill="#c00"/>
  <text x="10" y="200" font-size="13" fill="#333">用户</text>

  <!-- 连接线 -->
  <line x1="60" y1="120" x2="190" y2="100" stroke="#333" stroke-width="2"/>
  <line x1="60" y1="140" x2="190" y2="150" stroke="#333" stroke-width="2"/>
  <line x1="60" y1="160" x2="190" y2="200" stroke="#333" stroke-width="2"/>
  <line x1="310" y1="150" x2="310" y2="150" stroke="#333" stroke-width="2"/>
  <line x1="310" y1="150" x2="310" y2="150" stroke="#333" stroke-width="2"/>
  <line x1="310" y1="150" x2="370" y2="150" stroke="#333" stroke-width="2"/>
</svg>
