<svg width="600" height="320" xmlns="http://www.w3.org/2000/svg">
  <!-- 边框 -->
  <rect x="120" y="30" width="360" height="250" fill="none" stroke="#1976d2" stroke-width="2"/>
  <text x="230" y="55" font-size="16" fill="#1976d2">图书管理子系统</text>

  <!-- 用例椭圆 -->
  <ellipse cx="200" cy="110" rx="60" ry="22" fill="#bbdefb" stroke="#1976d2" stroke-width="2"/>
  <text x="175" y="115" font-size="14" fill="#1976d2">图书查询</text>
  <ellipse cx="200" cy="170" rx="60" ry="22" fill="#bbdefb" stroke="#1976d2" stroke-width="2"/>
  <text x="175" y="175" font-size="14" fill="#1976d2">图书详情</text>
  <ellipse cx="200" cy="230" rx="60" ry="22" fill="#bbdefb" stroke="#1976d2" stroke-width="2"/>
  <text x="175" y="235" font-size="14" fill="#1976d2">图书评论</text>

  <ellipse cx="400" cy="110" rx="60" ry="22" fill="#bbdefb" stroke="#1976d2" stroke-width="2"/>
  <text x="375" y="115" font-size="14" fill="#1976d2">评论删除</text>
  <ellipse cx="400" cy="170" rx="60" ry="22" fill="#bbdefb" stroke="#1976d2" stroke-width="2"/>
  <text x="375" y="175" font-size="14" fill="#1976d2">图书排序</text>
  <ellipse cx="400" cy="230" rx="60" ry="22" fill="#bbdefb" stroke="#1976d2" stroke-width="2"/>
  <text x="375" y="235" font-size="14" fill="#1976d2">API获取</text>

  <!-- 用户 -->
  <rect x="30" y="140" width="30" height="60" rx="15" fill="#c00"/>
  <circle cx="45" cy="130" r="15" fill="#c00"/>
  <text x="10" y="230" font-size="13" fill="#333">用户</text>

  <!-- 连接线 -->
  <line x1="60" y1="150" x2="140" y2="110" stroke="#333" stroke-width="2"/>
  <line x1="60" y1="170" x2="140" y2="170" stroke="#333" stroke-width="2"/>
  <line x1="60" y1="190" x2="140" y2="230" stroke="#333" stroke-width="2"/>
  <line x1="260" y1="110" x2="340" y2="110" stroke="#333" stroke-width="2"/>
  <line x1="260" y1="170" x2="340" y2="170" stroke="#333" stroke-width="2"/>
  <line x1="260" y1="230" x2="340" y2="230" stroke="#333" stroke-width="2"/>
</svg>
